<svg width="1920" height="1080" viewBox="0 0 1920 1080" xmlns="http://www.w3.org/2000/svg">
  <defs>
    <linearGradient id="blueGradient1" x1="0%" y1="0%" x2="100%" y2="100%">
      <stop offset="0%" style="stop-color:#3B82F6;stop-opacity:0.1"/>
      <stop offset="100%" style="stop-color:#1E40AF;stop-opacity:0.05"/>
    </linearGradient>
    <linearGradient id="blueGradient2" x1="0%" y1="100%" x2="100%" y2="0%">
      <stop offset="0%" style="stop-color:#60A5FA;stop-opacity:0.08"/>
      <stop offset="100%" style="stop-color:#2563EB;stop-opacity:0.03"/>
    </linearGradient>
    <radialGradient id="circleGradient" cx="50%" cy="50%" r="50%">
      <stop offset="0%" style="stop-color:#3B82F6;stop-opacity:0.06"/>
      <stop offset="100%" style="stop-color:#1D4ED8;stop-opacity:0.02"/>
    </radialGradient>
  </defs>
  
  <!-- White background -->
  <rect width="100%" height="100%" fill="#FFFFFF"/>
  
  <!-- Decorative elements -->
  <!-- Large circles -->
  <circle cx="200" cy="150" r="80" fill="url(#circleGradient)"/>
  <circle cx="1700" cy="200" r="120" fill="url(#circleGradient)"/>
  <circle cx="300" cy="800" r="100" fill="url(#circleGradient)"/>
  <circle cx="1600" cy="900" r="90" fill="url(#circleGradient)"/>
  
  <!-- Geometric shapes -->
  <polygon points="100,400 200,350 250,450 150,500" fill="url(#blueGradient1)"/>
  <polygon points="1650,600 1750,550 1800,650 1700,700" fill="url(#blueGradient2)"/>
  
  <!-- Curved lines -->
  <path d="M0,300 Q400,200 800,300 T1600,250" stroke="#3B82F6" stroke-width="2" fill="none" opacity="0.3"/>
  <path d="M320,800 Q720,700 1120,800 T1920,750" stroke="#60A5FA" stroke-width="1.5" fill="none" opacity="0.4"/>
  
  <!-- Small decorative dots -->
  <circle cx="500" cy="250" r="4" fill="#3B82F6" opacity="0.4"/>
  <circle cx="800" cy="180" r="3" fill="#2563EB" opacity="0.5"/>
  <circle cx="1200" cy="320" r="5" fill="#1E40AF" opacity="0.3"/>
  <circle cx="600" cy="600" r="3" fill="#60A5FA" opacity="0.6"/>
  <circle cx="1000" cy="700" r="4" fill="#3B82F6" opacity="0.4"/>
  <circle cx="1400" cy="450" r="3" fill="#2563EB" opacity="0.5"/>
  
  <!-- Abstract shapes -->
  <ellipse cx="1300" cy="150" rx="60" ry="30" fill="url(#blueGradient1)" transform="rotate(45 1300 150)"/>
  <ellipse cx="400" cy="950" rx="80" ry="40" fill="url(#blueGradient2)" transform="rotate(-30 400 950)"/>
  
  <!-- Subtle grid pattern -->
  <defs>
    <pattern id="grid" width="100" height="100" patternUnits="userSpaceOnUse">
      <path d="M 100 0 L 0 0 0 100" fill="none" stroke="#E5E7EB" stroke-width="0.5" opacity="0.3"/>
    </pattern>
  </defs>
  <rect width="100%" height="100%" fill="url(#grid)"/>
</svg>
