<svg width="1920" height="1080" viewBox="0 0 1920 1080" xmlns="http://www.w3.org/2000/svg">
  <defs>
    <!-- Cosmic gradient -->
    <radialGradient id="cosmicGrad" cx="50%" cy="30%" r="70%">
      <stop offset="0%" style="stop-color:#C084FC;stop-opacity:0.9"/>
      <stop offset="40%" style="stop-color:#A855F7;stop-opacity:0.7"/>
      <stop offset="80%" style="stop-color:#7C3AED;stop-opacity:0.5"/>
      <stop offset="100%" style="stop-color:#5B21B6;stop-opacity:0.3"/>
    </radialGradient>
    <!-- Nebula gradient -->
    <linearGradient id="nebulaGrad" x1="0%" y1="0%" x2="100%" y2="100%">
      <stop offset="0%" style="stop-color:#DDD6FE;stop-opacity:0.4"/>
      <stop offset="50%" style="stop-color:#C4B5FD;stop-opacity:0.3"/>
      <stop offset="100%" style="stop-color:#A78BFA;stop-opacity:0.2"/>
    </linearGradient>
  </defs>
  
  <!-- Base background -->
  <rect width="100%" height="100%" fill="#FAF5FF"/>
  
  <!-- Large cosmic clouds -->
  <ellipse cx="400" cy="300" rx="300" ry="150" fill="url(#cosmicGrad)" transform="rotate(-20 400 300)"/>
  <ellipse cx="1500" cy="700" rx="400" ry="200" fill="url(#nebulaGrad)" transform="rotate(30 1500 700)"/>
  
  <!-- Stars -->
  <circle cx="200" cy="150" r="3" fill="#C084FC" opacity="0.8"/>
  <circle cx="600" cy="100" r="2" fill="#A855F7" opacity="0.9"/>
  <circle cx="1000" cy="200" r="4" fill="#DDD6FE" opacity="0.7"/>
  <circle cx="1400" cy="120" r="2" fill="#7C3AED" opacity="0.8"/>
  <circle cx="1700" cy="180" r="3" fill="#C4B5FD" opacity="0.6"/>
  <circle cx="300" cy="600" r="2" fill="#A78BFA" opacity="0.9"/>
  <circle cx="800" cy="800" r="3" fill="#C084FC" opacity="0.7"/>
  <circle cx="1200" cy="900" r="2" fill="#A855F7" opacity="0.8"/>
  
  <!-- Cosmic swirls -->
  <path d="M100,500 Q400,400 700,500 Q1000,600 1300,500" stroke="#A855F7" stroke-width="2" fill="none" opacity="0.4"/>
  <path d="M500,800 Q800,700 1100,800 Q1400,900 1700,800" stroke="#C084FC" stroke-width="1.5" fill="none" opacity="0.3"/>
  
  <!-- Floating orbs -->
  <circle cx="150" cy="800" r="25" fill="url(#cosmicGrad)" opacity="0.5"/>
  <circle cx="1800" cy="300" r="35" fill="url(#nebulaGrad)" opacity="0.4"/>
  <circle cx="900" cy="450" r="20" fill="#DDD6FE" opacity="0.6"/>
</svg>
