<svg width="1920" height="1080" viewBox="0 0 1920 1080" xmlns="http://www.w3.org/2000/svg">
  <defs>
    <!-- Sunset gradient -->
    <linearGradient id="sunsetGrad" x1="0%" y1="0%" x2="100%" y2="100%">
      <stop offset="0%" style="stop-color:#FED7AA;stop-opacity:0.9"/>
      <stop offset="30%" style="stop-color:#FB923C;stop-opacity:0.7"/>
      <stop offset="70%" style="stop-color:#EA580C;stop-opacity:0.5"/>
      <stop offset="100%" style="stop-color:#C2410C;stop-opacity:0.3"/>
    </linearGradient>
    <!-- Geometric shapes gradient -->
    <linearGradient id="geoGrad" x1="0%" y1="0%" x2="100%" y2="0%">
      <stop offset="0%" style="stop-color:#FDBA74;stop-opacity:0.4"/>
      <stop offset="100%" style="stop-color:#F97316;stop-opacity:0.2"/>
    </linearGradient>
  </defs>
  
  <!-- Base background -->
  <rect width="100%" height="100%" fill="#FFF7ED"/>
  
  <!-- Large geometric shapes -->
  <polygon points="0,0 400,0 300,300 0,400" fill="url(#sunsetGrad)"/>
  <polygon points="1920,0 1520,0 1620,300 1920,400" fill="url(#sunsetGrad)"/>
  <polygon points="600,800 1000,700 1200,1080 400,1080" fill="url(#geoGrad)"/>
  
  <!-- Floating triangles -->
  <polygon points="200,600 280,500 120,500" fill="#FB923C" opacity="0.3"/>
  <polygon points="1700,400 1780,300 1620,300" fill="#EA580C" opacity="0.4"/>
  <polygon points="900,200 980,100 820,100" fill="#F97316" opacity="0.3"/>
  
  <!-- Hexagonal elements -->
  <polygon points="1400,600 1450,580 1500,600 1500,640 1450,660 1400,640" fill="#FDBA74" opacity="0.5"/>
  <polygon points="300,150 350,130 400,150 400,190 350,210 300,190" fill="#FB923C" opacity="0.4"/>
  
  <!-- Decorative lines -->
  <line x1="0" y1="200" x2="600" y2="150" stroke="#F97316" stroke-width="2" opacity="0.3"/>
  <line x1="1320" y1="250" x2="1920" y2="200" stroke="#EA580C" stroke-width="2" opacity="0.3"/>
</svg>
