<svg width="1920" height="1080" viewBox="0 0 1920 1080" xmlns="http://www.w3.org/2000/svg">
  <defs>
    <!-- Tech gradient -->
    <linearGradient id="techGrad" x1="0%" y1="0%" x2="100%" y2="100%">
      <stop offset="0%" style="stop-color:#E2E8F0;stop-opacity:0.8"/>
      <stop offset="50%" style="stop-color:#CBD5E1;stop-opacity:0.6"/>
      <stop offset="100%" style="stop-color:#94A3B8;stop-opacity:0.4"/>
    </linearGradient>
    <!-- Circuit pattern -->
    <linearGradient id="circuitGrad" x1="0%" y1="0%" x2="100%" y2="0%">
      <stop offset="0%" style="stop-color:#64748B;stop-opacity:0.3"/>
      <stop offset="100%" style="stop-color:#475569;stop-opacity:0.1"/>
    </linearGradient>
  </defs>
  
  <!-- Base background -->
  <rect width="100%" height="100%" fill="#F8FAFC"/>
  
  <!-- Grid pattern -->
  <defs>
    <pattern id="techGrid" width="80" height="80" patternUnits="userSpaceOnUse">
      <path d="M 80 0 L 0 0 0 80" fill="none" stroke="#CBD5E1" stroke-width="0.5" opacity="0.4"/>
    </pattern>
  </defs>
  <rect width="100%" height="100%" fill="url(#techGrid)"/>
  
  <!-- Circuit-like connections -->
  <path d="M0,300 L400,300 L400,500 L800,500 L800,200 L1200,200 L1200,600 L1920,600" stroke="#64748B" stroke-width="2" fill="none" opacity="0.3"/>
  <path d="M0,700 L300,700 L300,400 L700,400 L700,800 L1100,800 L1100,300 L1920,300" stroke="#475569" stroke-width="1.5" fill="none" opacity="0.4"/>
  
  <!-- Tech nodes -->
  <rect x="390" y="290" width="20" height="20" rx="3" fill="#64748B" opacity="0.5"/>
  <rect x="790" y="490" width="20" height="20" rx="3" fill="#475569" opacity="0.6"/>
  <rect x="1190" y="190" width="20" height="20" rx="3" fill="#64748B" opacity="0.5"/>
  <rect x="290" y="690" width="20" height="20" rx="3" fill="#475569" opacity="0.6"/>
  <rect x="690" y="390" width="20" height="20" rx="3" fill="#64748B" opacity="0.5"/>
  <rect x="1090" y="790" width="20" height="20" rx="3" fill="#475569" opacity="0.6"/>
  
  <!-- Floating geometric elements -->
  <polygon points="200,150 250,120 300,150 300,200 250,230 200,200" fill="url(#techGrad)" opacity="0.4"/>
  <polygon points="1600,250 1650,220 1700,250 1700,300 1650,330 1600,300" fill="url(#circuitGrad)" opacity="0.5"/>
  
  <!-- Subtle accent dots -->
  <circle cx="500" cy="150" r="4" fill="#64748B" opacity="0.6"/>
  <circle cx="1300" cy="450" r="3" fill="#475569" opacity="0.7"/>
  <circle cx="150" cy="900" r="5" fill="#64748B" opacity="0.5"/>
  <circle cx="1800" cy="800" r="4" fill="#475569" opacity="0.6"/>
</svg>
